<mxfile host="app.diagrams.net" modified="2023-08-22T09:47:58.380Z" agent="Mozilla/5.0 (Windows NT 10.0; Win64; x64) AppleWebKit/537.36 (KHTML, like Gecko) Chrome/115.0.0.0 Safari/537.36" etag="MEtgFRZ9-s7c20jpWIoi" version="21.6.8" type="github">
  <diagram name="Page-1" id="6_Ie_lHbkk36_fpsY5KO">
    <mxGraphModel dx="1290" dy="534" grid="1" gridSize="10" guides="1" tooltips="1" connect="1" arrows="1" fold="1" page="1" pageScale="1" pageWidth="827" pageHeight="1169" math="0" shadow="0">
      <root>
        <mxCell id="0" />
        <mxCell id="1" parent="0" />
        <mxCell id="RZJ3kPTFEu2Ctu2qSpSS-1" value="Utilisateur" style="swimlane;whiteSpace=wrap;html=1;" parent="1" vertex="1">
          <mxGeometry x="40" y="40" width="200" height="200" as="geometry" />
        </mxCell>
        <mxCell id="RZJ3kPTFEu2Ctu2qSpSS-25" value="&lt;u&gt;identifiant&lt;/u&gt;&lt;br&gt;nom&lt;br&gt;prénom&lt;br&gt;pseudo&lt;br&gt;email&lt;br&gt;mdp" style="text;html=1;align=center;verticalAlign=middle;resizable=0;points=[];autosize=1;strokeColor=none;fillColor=none;" parent="RZJ3kPTFEu2Ctu2qSpSS-1" vertex="1">
          <mxGeometry x="65" y="18" width="70" height="100" as="geometry" />
        </mxCell>
        <mxCell id="RZJ3kPTFEu2Ctu2qSpSS-2" value="Restaurant" style="swimlane;whiteSpace=wrap;html=1;" parent="1" vertex="1">
          <mxGeometry x="600" y="40" width="200" height="200" as="geometry" />
        </mxCell>
        <mxCell id="RZJ3kPTFEu2Ctu2qSpSS-26" value="&lt;u&gt;identifiant&lt;/u&gt;&lt;br&gt;nom&lt;br&gt;adresse&lt;br&gt;prix" style="text;html=1;align=center;verticalAlign=middle;resizable=0;points=[];autosize=1;strokeColor=none;fillColor=none;" parent="RZJ3kPTFEu2Ctu2qSpSS-2" vertex="1">
          <mxGeometry x="65" y="25" width="70" height="70" as="geometry" />
        </mxCell>
        <mxCell id="RZJ3kPTFEu2Ctu2qSpSS-3" value="Ajouter" style="ellipse;whiteSpace=wrap;html=1;" parent="1" vertex="1">
          <mxGeometry x="354" y="120" width="120" height="40" as="geometry" />
        </mxCell>
        <mxCell id="RZJ3kPTFEu2Ctu2qSpSS-4" value="" style="endArrow=none;html=1;rounded=0;exitX=1;exitY=0.5;exitDx=0;exitDy=0;" parent="1" source="RZJ3kPTFEu2Ctu2qSpSS-1" target="RZJ3kPTFEu2Ctu2qSpSS-3" edge="1">
          <mxGeometry width="50" height="50" relative="1" as="geometry">
            <mxPoint x="390" y="250" as="sourcePoint" />
            <mxPoint x="440" y="200" as="targetPoint" />
          </mxGeometry>
        </mxCell>
        <mxCell id="RZJ3kPTFEu2Ctu2qSpSS-5" value="" style="endArrow=none;html=1;rounded=0;entryX=0;entryY=0.5;entryDx=0;entryDy=0;exitX=1;exitY=0.5;exitDx=0;exitDy=0;" parent="1" source="RZJ3kPTFEu2Ctu2qSpSS-3" target="RZJ3kPTFEu2Ctu2qSpSS-2" edge="1">
          <mxGeometry width="50" height="50" relative="1" as="geometry">
            <mxPoint x="390" y="250" as="sourcePoint" />
            <mxPoint x="440" y="200" as="targetPoint" />
          </mxGeometry>
        </mxCell>
        <mxCell id="RZJ3kPTFEu2Ctu2qSpSS-6" value="Catégorie" style="swimlane;whiteSpace=wrap;html=1;" parent="1" vertex="1">
          <mxGeometry x="600" y="360" width="200" height="200" as="geometry" />
        </mxCell>
        <mxCell id="RZJ3kPTFEu2Ctu2qSpSS-29" value="&lt;u&gt;identifiant&lt;/u&gt;&lt;br&gt;nom" style="text;html=1;align=center;verticalAlign=middle;resizable=0;points=[];autosize=1;strokeColor=none;fillColor=none;" parent="RZJ3kPTFEu2Ctu2qSpSS-6" vertex="1">
          <mxGeometry x="65" y="55" width="70" height="40" as="geometry" />
        </mxCell>
        <mxCell id="RZJ3kPTFEu2Ctu2qSpSS-7" value="Choix" style="ellipse;whiteSpace=wrap;html=1;" parent="1" vertex="1">
          <mxGeometry x="640" y="280" width="120" height="40" as="geometry" />
        </mxCell>
        <mxCell id="RZJ3kPTFEu2Ctu2qSpSS-8" value="" style="endArrow=none;html=1;rounded=0;entryX=0.5;entryY=1;entryDx=0;entryDy=0;exitX=0.5;exitY=0;exitDx=0;exitDy=0;" parent="1" source="RZJ3kPTFEu2Ctu2qSpSS-7" target="RZJ3kPTFEu2Ctu2qSpSS-2" edge="1">
          <mxGeometry width="50" height="50" relative="1" as="geometry">
            <mxPoint x="390" y="330" as="sourcePoint" />
            <mxPoint x="440" y="280" as="targetPoint" />
          </mxGeometry>
        </mxCell>
        <mxCell id="RZJ3kPTFEu2Ctu2qSpSS-9" value="" style="endArrow=none;html=1;rounded=0;entryX=0.5;entryY=1;entryDx=0;entryDy=0;exitX=0.5;exitY=0;exitDx=0;exitDy=0;" parent="1" source="RZJ3kPTFEu2Ctu2qSpSS-6" target="RZJ3kPTFEu2Ctu2qSpSS-7" edge="1">
          <mxGeometry width="50" height="50" relative="1" as="geometry">
            <mxPoint x="390" y="330" as="sourcePoint" />
            <mxPoint x="440" y="280" as="targetPoint" />
          </mxGeometry>
        </mxCell>
        <mxCell id="RZJ3kPTFEu2Ctu2qSpSS-12" value="" style="endArrow=none;html=1;rounded=0;entryX=0;entryY=0.5;entryDx=0;entryDy=0;" parent="1" target="RZJ3kPTFEu2Ctu2qSpSS-27" edge="1">
          <mxGeometry width="50" height="50" relative="1" as="geometry">
            <mxPoint x="240" y="230" as="sourcePoint" />
            <mxPoint x="354" y="230" as="targetPoint" />
          </mxGeometry>
        </mxCell>
        <mxCell id="RZJ3kPTFEu2Ctu2qSpSS-13" value="" style="endArrow=none;html=1;rounded=0;exitX=1;exitY=0.5;exitDx=0;exitDy=0;" parent="1" source="RZJ3kPTFEu2Ctu2qSpSS-27" edge="1">
          <mxGeometry width="50" height="50" relative="1" as="geometry">
            <mxPoint x="480" y="230" as="sourcePoint" />
            <mxPoint x="600" y="230" as="targetPoint" />
          </mxGeometry>
        </mxCell>
        <mxCell id="RZJ3kPTFEu2Ctu2qSpSS-17" value="0,N" style="text;html=1;align=center;verticalAlign=middle;resizable=0;points=[];autosize=1;strokeColor=none;fillColor=none;" parent="1" vertex="1">
          <mxGeometry x="240" y="108" width="40" height="30" as="geometry" />
        </mxCell>
        <mxCell id="RZJ3kPTFEu2Ctu2qSpSS-18" value="1,1" style="text;html=1;align=center;verticalAlign=middle;resizable=0;points=[];autosize=1;strokeColor=none;fillColor=none;" parent="1" vertex="1">
          <mxGeometry x="560" y="108" width="40" height="30" as="geometry" />
        </mxCell>
        <mxCell id="RZJ3kPTFEu2Ctu2qSpSS-21" value="1,1" style="text;html=1;align=center;verticalAlign=middle;resizable=0;points=[];autosize=1;strokeColor=none;fillColor=none;" parent="1" vertex="1">
          <mxGeometry x="700" y="240" width="40" height="30" as="geometry" />
        </mxCell>
        <mxCell id="RZJ3kPTFEu2Ctu2qSpSS-22" value="0,N" style="text;html=1;align=center;verticalAlign=middle;resizable=0;points=[];autosize=1;strokeColor=none;fillColor=none;" parent="1" vertex="1">
          <mxGeometry x="700" y="330" width="40" height="30" as="geometry" />
        </mxCell>
        <mxCell id="RZJ3kPTFEu2Ctu2qSpSS-23" value="0,N" style="text;html=1;align=center;verticalAlign=middle;resizable=0;points=[];autosize=1;strokeColor=none;fillColor=none;" parent="1" vertex="1">
          <mxGeometry x="250" y="200" width="40" height="30" as="geometry" />
        </mxCell>
        <mxCell id="RZJ3kPTFEu2Ctu2qSpSS-24" value="0,N" style="text;html=1;align=center;verticalAlign=middle;resizable=0;points=[];autosize=1;strokeColor=none;fillColor=none;" parent="1" vertex="1">
          <mxGeometry x="560" y="200" width="40" height="30" as="geometry" />
        </mxCell>
        <mxCell id="RZJ3kPTFEu2Ctu2qSpSS-27" value="Commenter&lt;br&gt;&lt;br&gt;avis" style="shape=lineEllipse;perimeter=ellipsePerimeter;whiteSpace=wrap;html=1;backgroundOutline=1;" parent="1" vertex="1">
          <mxGeometry x="359" y="190" width="110" height="80" as="geometry" />
        </mxCell>
        <mxCell id="RZJ3kPTFEu2Ctu2qSpSS-28" value="&lt;b&gt;&lt;font style=&quot;font-size: 24px;&quot;&gt;MCD&lt;/font&gt;&lt;/b&gt;" style="text;html=1;align=center;verticalAlign=middle;resizable=0;points=[];autosize=1;strokeColor=none;fillColor=none;" parent="1" vertex="1">
          <mxGeometry x="374" width="80" height="40" as="geometry" />
        </mxCell>
        <mxCell id="RZJ3kPTFEu2Ctu2qSpSS-30" value="Groupe" style="swimlane;whiteSpace=wrap;html=1;" parent="1" vertex="1">
          <mxGeometry x="40" y="360" width="200" height="200" as="geometry" />
        </mxCell>
        <mxCell id="RZJ3kPTFEu2Ctu2qSpSS-31" value="&lt;u&gt;identifiant&lt;/u&gt;&lt;br&gt;nom&lt;br&gt;" style="text;html=1;align=center;verticalAlign=middle;resizable=0;points=[];autosize=1;strokeColor=none;fillColor=none;" parent="RZJ3kPTFEu2Ctu2qSpSS-30" vertex="1">
          <mxGeometry x="65" y="45" width="70" height="40" as="geometry" />
        </mxCell>
        <mxCell id="RZJ3kPTFEu2Ctu2qSpSS-32" value="Apartenir" style="ellipse;whiteSpace=wrap;html=1;" parent="1" vertex="1">
          <mxGeometry x="80" y="280" width="120" height="40" as="geometry" />
        </mxCell>
        <mxCell id="RZJ3kPTFEu2Ctu2qSpSS-33" value="" style="endArrow=none;html=1;rounded=0;entryX=0.5;entryY=1;entryDx=0;entryDy=0;" parent="1" source="RZJ3kPTFEu2Ctu2qSpSS-32" target="RZJ3kPTFEu2Ctu2qSpSS-1" edge="1">
          <mxGeometry width="50" height="50" relative="1" as="geometry">
            <mxPoint x="390" y="300" as="sourcePoint" />
            <mxPoint x="440" y="250" as="targetPoint" />
          </mxGeometry>
        </mxCell>
        <mxCell id="RZJ3kPTFEu2Ctu2qSpSS-34" value="" style="endArrow=none;html=1;rounded=0;entryX=0.5;entryY=1;entryDx=0;entryDy=0;exitX=0.5;exitY=0;exitDx=0;exitDy=0;" parent="1" source="RZJ3kPTFEu2Ctu2qSpSS-30" target="RZJ3kPTFEu2Ctu2qSpSS-32" edge="1">
          <mxGeometry width="50" height="50" relative="1" as="geometry">
            <mxPoint x="390" y="300" as="sourcePoint" />
            <mxPoint x="440" y="250" as="targetPoint" />
          </mxGeometry>
        </mxCell>
        <mxCell id="RZJ3kPTFEu2Ctu2qSpSS-35" value="0,N" style="text;html=1;align=center;verticalAlign=middle;resizable=0;points=[];autosize=1;strokeColor=none;fillColor=none;" parent="1" vertex="1">
          <mxGeometry x="140" y="240" width="40" height="30" as="geometry" />
        </mxCell>
        <mxCell id="RZJ3kPTFEu2Ctu2qSpSS-36" value="1,N" style="text;html=1;align=center;verticalAlign=middle;resizable=0;points=[];autosize=1;strokeColor=none;fillColor=none;" parent="1" vertex="1">
          <mxGeometry x="140" y="330" width="40" height="30" as="geometry" />
        </mxCell>
        <mxCell id="RZJ3kPTFEu2Ctu2qSpSS-65" value="Utilisateur" style="swimlane;whiteSpace=wrap;html=1;" parent="1" vertex="1">
          <mxGeometry x="42" y="639" width="200" height="191" as="geometry" />
        </mxCell>
        <mxCell id="RZJ3kPTFEu2Ctu2qSpSS-66" value="&lt;u&gt;identifiant&lt;/u&gt;&lt;br&gt;nom&lt;br&gt;prénom&lt;br&gt;pseudo&lt;br&gt;email&lt;br&gt;mdp" style="text;html=1;align=center;verticalAlign=middle;resizable=0;points=[];autosize=1;strokeColor=none;fillColor=none;" parent="RZJ3kPTFEu2Ctu2qSpSS-65" vertex="1">
          <mxGeometry x="65" y="18" width="70" height="100" as="geometry" />
        </mxCell>
        <mxCell id="RZJ3kPTFEu2Ctu2qSpSS-67" value="Restaurant" style="swimlane;whiteSpace=wrap;html=1;" parent="1" vertex="1">
          <mxGeometry x="602" y="639" width="200" height="200" as="geometry" />
        </mxCell>
        <mxCell id="RZJ3kPTFEu2Ctu2qSpSS-68" value="&lt;u&gt;identifiant&lt;/u&gt;&lt;br&gt;nom&lt;br&gt;adresse&lt;br&gt;prix&lt;br&gt;&lt;br&gt;i&lt;u&gt;dUtilisateur&lt;br&gt;idCatégorie&lt;/u&gt;" style="text;html=1;align=center;verticalAlign=middle;resizable=0;points=[];autosize=1;strokeColor=none;fillColor=none;" parent="RZJ3kPTFEu2Ctu2qSpSS-67" vertex="1">
          <mxGeometry x="55" y="28" width="90" height="110" as="geometry" />
        </mxCell>
        <mxCell id="RZJ3kPTFEu2Ctu2qSpSS-70" value="" style="endArrow=none;html=1;rounded=0;exitX=1;exitY=0.5;exitDx=0;exitDy=0;entryX=1.1;entryY=0.953;entryDx=0;entryDy=0;entryPerimeter=0;" parent="1" source="RZJ3kPTFEu2Ctu2qSpSS-65" target="RZJ3kPTFEu2Ctu2qSpSS-80" edge="1">
          <mxGeometry width="50" height="50" relative="1" as="geometry">
            <mxPoint x="392" y="849" as="sourcePoint" />
            <mxPoint x="356" y="739" as="targetPoint" />
          </mxGeometry>
        </mxCell>
        <mxCell id="RZJ3kPTFEu2Ctu2qSpSS-72" value="Catégorie" style="swimlane;whiteSpace=wrap;html=1;" parent="1" vertex="1">
          <mxGeometry x="602" y="959" width="200" height="200" as="geometry" />
        </mxCell>
        <mxCell id="RZJ3kPTFEu2Ctu2qSpSS-73" value="&lt;u&gt;identifiant&lt;/u&gt;&lt;br&gt;nom" style="text;html=1;align=center;verticalAlign=middle;resizable=0;points=[];autosize=1;strokeColor=none;fillColor=none;" parent="RZJ3kPTFEu2Ctu2qSpSS-72" vertex="1">
          <mxGeometry x="65" y="55" width="70" height="40" as="geometry" />
        </mxCell>
        <mxCell id="RZJ3kPTFEu2Ctu2qSpSS-75" value="" style="endArrow=none;html=1;rounded=0;entryX=0.5;entryY=1;entryDx=0;entryDy=0;" parent="1" source="RZJ3kPTFEu2Ctu2qSpSS-72" target="RZJ3kPTFEu2Ctu2qSpSS-67" edge="1">
          <mxGeometry width="50" height="50" relative="1" as="geometry">
            <mxPoint x="702" y="879" as="sourcePoint" />
            <mxPoint x="442" y="879" as="targetPoint" />
          </mxGeometry>
        </mxCell>
        <mxCell id="RZJ3kPTFEu2Ctu2qSpSS-77" value="" style="endArrow=none;html=1;rounded=0;" parent="1" edge="1">
          <mxGeometry width="50" height="50" relative="1" as="geometry">
            <mxPoint x="242" y="829" as="sourcePoint" />
            <mxPoint x="330" y="830" as="targetPoint" />
          </mxGeometry>
        </mxCell>
        <mxCell id="RZJ3kPTFEu2Ctu2qSpSS-78" value="" style="endArrow=none;html=1;rounded=0;" parent="1" edge="1">
          <mxGeometry width="50" height="50" relative="1" as="geometry">
            <mxPoint x="500" y="829" as="sourcePoint" />
            <mxPoint x="602" y="829" as="targetPoint" />
          </mxGeometry>
        </mxCell>
        <mxCell id="RZJ3kPTFEu2Ctu2qSpSS-79" value="0,N" style="text;html=1;align=center;verticalAlign=middle;resizable=0;points=[];autosize=1;strokeColor=none;fillColor=none;" parent="1" vertex="1">
          <mxGeometry x="242" y="707" width="40" height="30" as="geometry" />
        </mxCell>
        <mxCell id="RZJ3kPTFEu2Ctu2qSpSS-80" value="1,1" style="text;html=1;align=center;verticalAlign=middle;resizable=0;points=[];autosize=1;strokeColor=none;fillColor=none;" parent="1" vertex="1">
          <mxGeometry x="562" y="707" width="40" height="30" as="geometry" />
        </mxCell>
        <mxCell id="RZJ3kPTFEu2Ctu2qSpSS-81" value="1,1" style="text;html=1;align=center;verticalAlign=middle;resizable=0;points=[];autosize=1;strokeColor=none;fillColor=none;" parent="1" vertex="1">
          <mxGeometry x="702" y="839" width="40" height="30" as="geometry" />
        </mxCell>
        <mxCell id="RZJ3kPTFEu2Ctu2qSpSS-82" value="0,N" style="text;html=1;align=center;verticalAlign=middle;resizable=0;points=[];autosize=1;strokeColor=none;fillColor=none;" parent="1" vertex="1">
          <mxGeometry x="702" y="929" width="40" height="30" as="geometry" />
        </mxCell>
        <mxCell id="RZJ3kPTFEu2Ctu2qSpSS-83" value="0,N" style="text;html=1;align=center;verticalAlign=middle;resizable=0;points=[];autosize=1;strokeColor=none;fillColor=none;" parent="1" vertex="1">
          <mxGeometry x="252" y="799" width="40" height="30" as="geometry" />
        </mxCell>
        <mxCell id="RZJ3kPTFEu2Ctu2qSpSS-84" value="0,N" style="text;html=1;align=center;verticalAlign=middle;resizable=0;points=[];autosize=1;strokeColor=none;fillColor=none;" parent="1" vertex="1">
          <mxGeometry x="562" y="799" width="40" height="30" as="geometry" />
        </mxCell>
        <mxCell id="RZJ3kPTFEu2Ctu2qSpSS-86" value="Groupe" style="swimlane;whiteSpace=wrap;html=1;" parent="1" vertex="1">
          <mxGeometry x="40" y="1040" width="200" height="121" as="geometry" />
        </mxCell>
        <mxCell id="RZJ3kPTFEu2Ctu2qSpSS-87" value="&lt;u&gt;identifiant&lt;/u&gt;&lt;br&gt;nom&lt;br&gt;" style="text;html=1;align=center;verticalAlign=middle;resizable=0;points=[];autosize=1;strokeColor=none;fillColor=none;" parent="RZJ3kPTFEu2Ctu2qSpSS-86" vertex="1">
          <mxGeometry x="65" y="45" width="70" height="40" as="geometry" />
        </mxCell>
        <mxCell id="RZJ3kPTFEu2Ctu2qSpSS-89" value="" style="endArrow=none;html=1;rounded=0;entryX=0.5;entryY=1;entryDx=0;entryDy=0;" parent="1" target="RZJ3kPTFEu2Ctu2qSpSS-65" edge="1">
          <mxGeometry width="50" height="50" relative="1" as="geometry">
            <mxPoint x="142" y="879" as="sourcePoint" />
            <mxPoint x="442" y="849" as="targetPoint" />
          </mxGeometry>
        </mxCell>
        <mxCell id="RZJ3kPTFEu2Ctu2qSpSS-90" value="" style="endArrow=none;html=1;rounded=0;exitX=0.5;exitY=0;exitDx=0;exitDy=0;" parent="1" source="RZJ3kPTFEu2Ctu2qSpSS-86" edge="1">
          <mxGeometry width="50" height="50" relative="1" as="geometry">
            <mxPoint x="392" y="899" as="sourcePoint" />
            <mxPoint x="140" y="990" as="targetPoint" />
          </mxGeometry>
        </mxCell>
        <mxCell id="RZJ3kPTFEu2Ctu2qSpSS-91" value="0,N" style="text;html=1;align=center;verticalAlign=middle;resizable=0;points=[];autosize=1;strokeColor=none;fillColor=none;" parent="1" vertex="1">
          <mxGeometry x="142" y="839" width="40" height="30" as="geometry" />
        </mxCell>
        <mxCell id="RZJ3kPTFEu2Ctu2qSpSS-92" value="1,N" style="text;html=1;align=center;verticalAlign=middle;resizable=0;points=[];autosize=1;strokeColor=none;fillColor=none;" parent="1" vertex="1">
          <mxGeometry x="142" y="1010" width="40" height="30" as="geometry" />
        </mxCell>
        <mxCell id="RZJ3kPTFEu2Ctu2qSpSS-93" value="&lt;b&gt;&lt;font style=&quot;font-size: 24px;&quot;&gt;MLD&lt;/font&gt;&lt;/b&gt;" style="text;html=1;align=center;verticalAlign=middle;resizable=0;points=[];autosize=1;strokeColor=none;fillColor=none;" parent="1" vertex="1">
          <mxGeometry x="374" y="599" width="80" height="40" as="geometry" />
        </mxCell>
        <mxCell id="RZJ3kPTFEu2Ctu2qSpSS-94" value="Avis" style="swimlane;whiteSpace=wrap;html=1;" parent="1" vertex="1">
          <mxGeometry x="334" y="769" width="160" height="190" as="geometry" />
        </mxCell>
        <mxCell id="RZJ3kPTFEu2Ctu2qSpSS-95" value="&lt;u&gt;idUtilisateur&lt;/u&gt;&lt;br&gt;&lt;u&gt;idRestaurant&lt;/u&gt;&lt;br&gt;avis&lt;br&gt;note" style="text;html=1;align=center;verticalAlign=middle;resizable=0;points=[];autosize=1;strokeColor=none;fillColor=none;" parent="1" vertex="1">
          <mxGeometry x="365" y="798" width="90" height="70" as="geometry" />
        </mxCell>
        <mxCell id="RZJ3kPTFEu2Ctu2qSpSS-96" value="UtilisateurGroupe" style="swimlane;whiteSpace=wrap;html=1;" parent="1" vertex="1">
          <mxGeometry x="75" y="870" width="130" height="120" as="geometry" />
        </mxCell>
        <mxCell id="RZJ3kPTFEu2Ctu2qSpSS-97" value="&lt;u&gt;idUtilisateur&lt;br&gt;idGroupe&lt;/u&gt;" style="text;html=1;align=center;verticalAlign=middle;resizable=0;points=[];autosize=1;strokeColor=none;fillColor=none;" parent="RZJ3kPTFEu2Ctu2qSpSS-96" vertex="1">
          <mxGeometry x="22" y="40" width="90" height="40" as="geometry" />
        </mxCell>
        <mxCell id="RZJ3kPTFEu2Ctu2qSpSS-99" value="Utilisateur" style="swimlane;whiteSpace=wrap;html=1;" parent="1" vertex="1">
          <mxGeometry x="41" y="1241" width="210" height="191" as="geometry" />
        </mxCell>
        <mxCell id="RZJ3kPTFEu2Ctu2qSpSS-100" value="&lt;u&gt;identifiant SERIAL PK&lt;/u&gt;&lt;br&gt;nom VARCHAR(255) NOT NULL&lt;br&gt;prénom VARCHAR(255) NOT NULL&lt;br&gt;pseudo VARCHAR(255) NOT NULL&lt;br&gt;email VARCHAR(255) NOT NULL&lt;br&gt;mdp VARCHAR(255) NOT NULL" style="text;html=1;align=center;verticalAlign=middle;resizable=0;points=[];autosize=1;strokeColor=none;fillColor=none;" parent="RZJ3kPTFEu2Ctu2qSpSS-99" vertex="1">
          <mxGeometry x="-10" y="18" width="220" height="100" as="geometry" />
        </mxCell>
        <mxCell id="RZJ3kPTFEu2Ctu2qSpSS-101" value="Restaurant" style="swimlane;whiteSpace=wrap;html=1;" parent="1" vertex="1">
          <mxGeometry x="601" y="1241" width="210" height="200" as="geometry" />
        </mxCell>
        <mxCell id="RZJ3kPTFEu2Ctu2qSpSS-102" value="&lt;u&gt;identifiant SERIAL PK&lt;/u&gt;&lt;br&gt;nom VARCHAR(255) NOT NULL&lt;br&gt;adresse VARCHAR(255) NOT NULL&lt;br&gt;prix ENUM(&#39;€&#39;,&#39;€€&#39;,&#39;€€€&#39;) NOT NULL&lt;br&gt;i&lt;u&gt;dUtilisateur&amp;nbsp;&lt;/u&gt;&lt;u style=&quot;border-color: var(--border-color);&quot;&gt;INT PK FK NOT NULL&lt;/u&gt;&lt;u&gt;&lt;br&gt;idCatégorie&amp;nbsp;&lt;/u&gt;&lt;u style=&quot;border-color: var(--border-color);&quot;&gt;INT PK FK NOT NULL&lt;/u&gt;" style="text;html=1;align=center;verticalAlign=middle;resizable=0;points=[];autosize=1;strokeColor=none;fillColor=none;" parent="RZJ3kPTFEu2Ctu2qSpSS-101" vertex="1">
          <mxGeometry x="-10" y="33" width="220" height="100" as="geometry" />
        </mxCell>
        <mxCell id="RZJ3kPTFEu2Ctu2qSpSS-103" value="" style="endArrow=none;html=1;rounded=0;exitX=1;exitY=0.5;exitDx=0;exitDy=0;entryX=1.1;entryY=0.953;entryDx=0;entryDy=0;entryPerimeter=0;" parent="1" source="RZJ3kPTFEu2Ctu2qSpSS-99" target="RZJ3kPTFEu2Ctu2qSpSS-110" edge="1">
          <mxGeometry width="50" height="50" relative="1" as="geometry">
            <mxPoint x="391" y="1451" as="sourcePoint" />
            <mxPoint x="355" y="1341" as="targetPoint" />
          </mxGeometry>
        </mxCell>
        <mxCell id="RZJ3kPTFEu2Ctu2qSpSS-104" value="Catégorie" style="swimlane;whiteSpace=wrap;html=1;" parent="1" vertex="1">
          <mxGeometry x="601" y="1561" width="200" height="200" as="geometry" />
        </mxCell>
        <mxCell id="RZJ3kPTFEu2Ctu2qSpSS-105" value="&lt;u&gt;identifiant&amp;nbsp;&lt;/u&gt;&lt;u style=&quot;border-color: var(--border-color);&quot;&gt;SERIAL PK&lt;/u&gt;&lt;br&gt;nom VARCHAR(255) NOT NULL" style="text;html=1;align=center;verticalAlign=middle;resizable=0;points=[];autosize=1;strokeColor=none;fillColor=none;" parent="RZJ3kPTFEu2Ctu2qSpSS-104" vertex="1">
          <mxGeometry y="55" width="200" height="40" as="geometry" />
        </mxCell>
        <mxCell id="RZJ3kPTFEu2Ctu2qSpSS-106" value="" style="endArrow=none;html=1;rounded=0;" parent="1" source="RZJ3kPTFEu2Ctu2qSpSS-104" edge="1">
          <mxGeometry width="50" height="50" relative="1" as="geometry">
            <mxPoint x="701" y="1481" as="sourcePoint" />
            <mxPoint x="700" y="1440" as="targetPoint" />
          </mxGeometry>
        </mxCell>
        <mxCell id="RZJ3kPTFEu2Ctu2qSpSS-107" value="" style="endArrow=none;html=1;rounded=0;exitX=0.015;exitY=1.02;exitDx=0;exitDy=0;exitPerimeter=0;" parent="1" source="RZJ3kPTFEu2Ctu2qSpSS-113" edge="1">
          <mxGeometry width="50" height="50" relative="1" as="geometry">
            <mxPoint x="241" y="1431" as="sourcePoint" />
            <mxPoint x="310" y="1431" as="targetPoint" />
          </mxGeometry>
        </mxCell>
        <mxCell id="RZJ3kPTFEu2Ctu2qSpSS-108" value="" style="endArrow=none;html=1;rounded=0;" parent="1" edge="1">
          <mxGeometry width="50" height="50" relative="1" as="geometry">
            <mxPoint x="510" y="1431" as="sourcePoint" />
            <mxPoint x="601" y="1431" as="targetPoint" />
          </mxGeometry>
        </mxCell>
        <mxCell id="RZJ3kPTFEu2Ctu2qSpSS-109" value="0,N" style="text;html=1;align=center;verticalAlign=middle;resizable=0;points=[];autosize=1;strokeColor=none;fillColor=none;" parent="1" vertex="1">
          <mxGeometry x="241" y="1309" width="40" height="30" as="geometry" />
        </mxCell>
        <mxCell id="RZJ3kPTFEu2Ctu2qSpSS-110" value="1,1" style="text;html=1;align=center;verticalAlign=middle;resizable=0;points=[];autosize=1;strokeColor=none;fillColor=none;" parent="1" vertex="1">
          <mxGeometry x="561" y="1309" width="40" height="30" as="geometry" />
        </mxCell>
        <mxCell id="RZJ3kPTFEu2Ctu2qSpSS-111" value="1,1" style="text;html=1;align=center;verticalAlign=middle;resizable=0;points=[];autosize=1;strokeColor=none;fillColor=none;" parent="1" vertex="1">
          <mxGeometry x="701" y="1441" width="40" height="30" as="geometry" />
        </mxCell>
        <mxCell id="RZJ3kPTFEu2Ctu2qSpSS-112" value="0,N" style="text;html=1;align=center;verticalAlign=middle;resizable=0;points=[];autosize=1;strokeColor=none;fillColor=none;" parent="1" vertex="1">
          <mxGeometry x="701" y="1531" width="40" height="30" as="geometry" />
        </mxCell>
        <mxCell id="RZJ3kPTFEu2Ctu2qSpSS-113" value="0,N" style="text;html=1;align=center;verticalAlign=middle;resizable=0;points=[];autosize=1;strokeColor=none;fillColor=none;" parent="1" vertex="1">
          <mxGeometry x="251" y="1401" width="40" height="30" as="geometry" />
        </mxCell>
        <mxCell id="RZJ3kPTFEu2Ctu2qSpSS-114" value="0,N" style="text;html=1;align=center;verticalAlign=middle;resizable=0;points=[];autosize=1;strokeColor=none;fillColor=none;" parent="1" vertex="1">
          <mxGeometry x="561" y="1401" width="40" height="30" as="geometry" />
        </mxCell>
        <mxCell id="RZJ3kPTFEu2Ctu2qSpSS-115" value="Groupe" style="swimlane;whiteSpace=wrap;html=1;" parent="1" vertex="1">
          <mxGeometry x="39" y="1642" width="200" height="121" as="geometry" />
        </mxCell>
        <mxCell id="RZJ3kPTFEu2Ctu2qSpSS-116" value="&lt;u&gt;identifiant&amp;nbsp;&lt;/u&gt;&lt;u style=&quot;border-color: var(--border-color);&quot;&gt;SERIAL PK&lt;/u&gt;&lt;br&gt;nom VARCHAR(255) NOT NULL" style="text;html=1;align=center;verticalAlign=middle;resizable=0;points=[];autosize=1;strokeColor=none;fillColor=none;" parent="RZJ3kPTFEu2Ctu2qSpSS-115" vertex="1">
          <mxGeometry y="45" width="200" height="40" as="geometry" />
        </mxCell>
        <mxCell id="RZJ3kPTFEu2Ctu2qSpSS-117" value="" style="endArrow=none;html=1;rounded=0;" parent="1" edge="1">
          <mxGeometry width="50" height="50" relative="1" as="geometry">
            <mxPoint x="141" y="1481" as="sourcePoint" />
            <mxPoint x="140" y="1430" as="targetPoint" />
          </mxGeometry>
        </mxCell>
        <mxCell id="RZJ3kPTFEu2Ctu2qSpSS-118" value="" style="endArrow=none;html=1;rounded=0;exitX=0.5;exitY=0;exitDx=0;exitDy=0;" parent="1" source="RZJ3kPTFEu2Ctu2qSpSS-115" edge="1">
          <mxGeometry width="50" height="50" relative="1" as="geometry">
            <mxPoint x="391" y="1501" as="sourcePoint" />
            <mxPoint x="139" y="1592" as="targetPoint" />
          </mxGeometry>
        </mxCell>
        <mxCell id="RZJ3kPTFEu2Ctu2qSpSS-119" value="0,N" style="text;html=1;align=center;verticalAlign=middle;resizable=0;points=[];autosize=1;strokeColor=none;fillColor=none;" parent="1" vertex="1">
          <mxGeometry x="141" y="1441" width="40" height="30" as="geometry" />
        </mxCell>
        <mxCell id="RZJ3kPTFEu2Ctu2qSpSS-120" value="1,N" style="text;html=1;align=center;verticalAlign=middle;resizable=0;points=[];autosize=1;strokeColor=none;fillColor=none;" parent="1" vertex="1">
          <mxGeometry x="141" y="1612" width="40" height="30" as="geometry" />
        </mxCell>
        <mxCell id="RZJ3kPTFEu2Ctu2qSpSS-121" value="&lt;b&gt;&lt;font style=&quot;font-size: 24px;&quot;&gt;MPD&lt;/font&gt;&lt;/b&gt;" style="text;html=1;align=center;verticalAlign=middle;resizable=0;points=[];autosize=1;strokeColor=none;fillColor=none;" parent="1" vertex="1">
          <mxGeometry x="373" y="1201" width="80" height="40" as="geometry" />
        </mxCell>
        <mxCell id="RZJ3kPTFEu2Ctu2qSpSS-122" value="Avis" style="swimlane;whiteSpace=wrap;html=1;" parent="1" vertex="1">
          <mxGeometry x="310" y="1371" width="200" height="190" as="geometry" />
        </mxCell>
        <mxCell id="RZJ3kPTFEu2Ctu2qSpSS-123" value="&lt;u&gt;idUtilisateur INT PK FK NOT NULL&lt;/u&gt;&lt;br&gt;&lt;u&gt;idRestaurant&amp;nbsp;&lt;/u&gt;&lt;u style=&quot;border-color: var(--border-color);&quot;&gt;INT PK FK NOT NULL&lt;/u&gt;&lt;u&gt;&lt;br&gt;&lt;/u&gt;avis TEXT NOT NULL&lt;br&gt;note BOOLEAN" style="text;html=1;align=center;verticalAlign=middle;resizable=0;points=[];autosize=1;strokeColor=none;fillColor=none;" parent="1" vertex="1">
          <mxGeometry x="304" y="1400" width="210" height="70" as="geometry" />
        </mxCell>
        <mxCell id="RZJ3kPTFEu2Ctu2qSpSS-124" value="UtilisateurGroupe" style="swimlane;whiteSpace=wrap;html=1;" parent="1" vertex="1">
          <mxGeometry x="40" y="1472" width="206" height="120" as="geometry" />
        </mxCell>
        <mxCell id="RZJ3kPTFEu2Ctu2qSpSS-125" value="&lt;u&gt;idUtilisateur&amp;nbsp;&lt;/u&gt;&lt;u style=&quot;border-color: var(--border-color);&quot;&gt;INT PK FK NOT NULL&lt;/u&gt;&lt;u&gt;&lt;br&gt;idGroupe&amp;nbsp;&lt;/u&gt;&lt;u style=&quot;border-color: var(--border-color);&quot;&gt;INT PK FK NOT NULL&lt;/u&gt;" style="text;html=1;align=center;verticalAlign=middle;resizable=0;points=[];autosize=1;strokeColor=none;fillColor=none;" parent="RZJ3kPTFEu2Ctu2qSpSS-124" vertex="1">
          <mxGeometry x="-2" y="40" width="210" height="40" as="geometry" />
        </mxCell>
      </root>
    </mxGraphModel>
  </diagram>
</mxfile>
